<svg data-v-423bf9ae="" xmlns="http://www.w3.org/2000/svg" viewBox="0 0 340.1588773276626 163" class="iconAbove"><!----><!----><!----><g data-v-423bf9ae="" id="e0317a98-c203-4776-a3b8-10a4db938d1f" fill="black" transform="matrix(4.332130142878321,0,0,4.332130142878321,-3.682310582983746,88.74729533304809)"><path d="M0.85 4.14L0.85 4.14L0.85 4.14Q2.42 3.61 4.10 3.61L4.10 3.61L4.10 3.61Q5.78 3.61 6.89 4.33L6.89 4.33L6.89 4.33Q7.99 5.04 7.99 6.51L7.99 6.51L7.99 6.51Q7.99 7.98 6.96 8.98L6.96 8.98L6.96 8.98Q5.92 9.98 4.47 9.98L4.47 9.98L4.47 9.98Q3.40 9.98 3.40 9.17L3.40 9.17L3.40 9.17Q3.40 8.92 3.50 8.64L3.50 8.64L3.50 8.64Q3.88 8.74 4.19 8.74L4.19 8.74L4.19 8.74Q5.15 8.74 5.65 8.20L5.65 8.20L5.65 8.20Q6.15 7.67 6.15 6.73L6.15 6.73L6.15 6.73Q6.15 5.78 5.61 5.32L5.61 5.32L5.61 5.32Q5.08 4.86 4.13 4.86L4.13 4.86L4.13 4.86Q3.64 4.86 2.94 5.03L2.94 5.03L2.94 5.03Q2.83 6.75 2.83 8.08L2.83 8.08L2.83 8.08Q2.83 11.80 3.12 13.47L3.12 13.47L3.12 13.47Q2.67 13.64 2.17 13.64L2.17 13.64L2.17 13.64Q1.67 13.64 1.29 13.31L1.29 13.31L1.29 13.31Q0.92 12.99 0.92 12.46L0.92 12.46L0.92 12.46Q0.92 11.93 1.06 10.61L1.06 10.61L1.06 10.61Q1.20 9.28 1.20 8.48L1.20 8.48L1.20 8.48Q1.20 6.05 0.85 4.14ZM11.06 13.47L11.06 13.47Q10.63 13.64 10.14 13.64L10.14 13.64L10.14 13.64Q9.65 13.64 9.35 13.41L9.35 13.41L9.35 13.41Q9.04 13.17 9.04 12.76L9.04 12.76L9.04 12.76Q9.04 12.35 9.17 11.26L9.17 11.26L9.17 11.26Q9.30 10.16 9.30 9.14L9.30 9.14L9.30 9.14Q9.30 8.11 8.97 6.72L8.97 6.72L8.97 6.72Q9.42 6.55 9.86 6.55L9.86 6.55L9.86 6.55Q10.29 6.55 10.61 6.85L10.61 6.85L10.61 6.85Q10.92 7.14 10.92 7.63L10.92 7.63L10.92 7.63Q10.92 7.88 10.84 8.38L10.84 8.38L10.84 8.38Q10.75 8.88 10.74 9.13L10.74 9.13L10.74 9.13Q11.28 7.88 12.03 7.18L12.03 7.18L12.03 7.18Q12.78 6.47 13.52 6.47L13.52 6.47L13.52 6.47Q14.04 6.47 14.35 6.83L14.35 6.83L14.35 6.83Q14.66 7.20 14.66 7.75L14.66 7.75L14.66 7.75Q14.66 8.30 14.38 8.64L14.38 8.64L14.38 8.64Q14.10 8.99 13.69 8.99L13.69 8.99L13.69 8.99Q13.27 8.99 13.02 8.90L13.02 8.90L13.02 8.90Q13.06 8.74 13.06 8.60L13.06 8.60L13.06 8.60Q13.06 8.02 12.66 8.02L12.66 8.02L12.66 8.02Q12.04 8.02 11.50 9.26L11.50 9.26L11.50 9.26Q10.96 10.50 10.78 11.58L10.78 11.58L10.78 11.58Q10.85 12.63 11.06 13.47L11.06 13.47ZM15.46 6.68L15.46 6.68L15.46 6.68Q15.90 6.55 16.36 6.55L16.36 6.55L16.36 6.55Q16.81 6.55 17.14 6.83L17.14 6.83L17.14 6.83Q17.46 7.11 17.46 7.55L17.46 7.55L17.46 7.55Q17.46 7.99 17.31 9.08L17.31 9.08L17.31 9.08Q17.16 10.16 17.16 10.77L17.16 10.77L17.16 10.77Q17.16 12.33 17.46 13.47L17.46 13.47L17.46 13.47Q17.02 13.64 16.52 13.64L16.52 13.64L16.52 13.64Q16.02 13.64 15.72 13.41L15.72 13.41L15.72 13.41Q15.43 13.17 15.43 12.73L15.43 12.73L15.43 12.73Q15.43 12.29 15.60 11.28L15.60 11.28L15.60 11.28Q15.76 10.28 15.76 9.62L15.76 9.62L15.76 9.62Q15.76 7.87 15.46 6.68ZM15.64 3.51L15.64 3.51L15.64 3.51Q16.13 3.29 16.60 3.29L16.60 3.29L16.60 3.29Q17.08 3.29 17.31 3.54L17.31 3.54L17.31 3.54Q17.54 3.78 17.54 4.26L17.54 4.26L17.54 4.26Q17.54 4.73 17.23 5.10L17.23 5.10L17.23 5.10Q16.91 5.46 16.41 5.46L16.41 5.46L16.41 5.46Q15.37 5.46 15.37 4.38L15.37 4.38L15.37 4.38Q15.37 3.91 15.64 3.51ZM29.67 7.98L29.67 7.98L29.53 10.98L29.53 10.98Q29.53 12.33 29.92 13.55L29.92 13.55L29.92 13.55Q29.53 13.72 29.02 13.72L29.02 13.72L29.02 13.72Q27.83 13.72 27.83 12.39L27.83 12.39L27.83 12.39Q27.83 11.79 27.99 10.37L27.99 10.37L27.99 10.37Q28.14 8.95 28.14 8.58L28.14 8.58L28.14 8.58Q28.14 7.88 27.57 7.88L27.57 7.88L27.57 7.88Q26.94 7.88 26.06 9.17L26.06 9.17L26.06 9.17Q25.19 10.46 25.19 11.19L25.19 11.19L25.19 11.19Q25.26 12.29 25.58 13.38L25.58 13.38L25.58 13.38Q25.05 13.55 24.68 13.55L24.68 13.55L24.68 13.55Q23.49 13.55 23.49 12.22L23.49 12.22L23.49 12.22Q23.49 11.66 23.65 10.35L23.65 10.35L23.65 10.35Q23.80 9.03 23.80 8.69L23.80 8.69L23.80 8.69Q23.80 7.99 23.17 7.99L23.17 7.99L23.17 7.99Q22.74 7.99 22.18 8.64L22.18 8.64L22.18 8.64Q21.62 9.28 21.23 10.06L21.23 10.06L21.23 10.06Q20.85 10.84 20.82 11.30L20.82 11.30L20.82 11.30Q20.89 12.50 21.10 13.47L21.10 13.47L21.10 13.47Q20.65 13.64 20.17 13.64L20.17 13.64L20.17 13.64Q19.68 13.64 19.38 13.41L19.38 13.41L19.38 13.41Q19.08 13.17 19.08 12.76L19.08 12.76L19.08 12.76Q19.08 12.35 19.21 11.28L19.21 11.28L19.21 11.28Q19.33 10.21 19.33 9.15L19.33 9.15L19.33 9.15Q19.33 8.09 19.01 6.72L19.01 6.72L19.01 6.72Q19.46 6.55 19.96 6.55L19.96 6.55L19.96 6.55Q20.47 6.55 20.78 6.85L20.78 6.85L20.78 6.85Q21.10 7.14 21.10 7.63L21.10 7.63L21.10 7.63Q21.10 7.88 21 8.86L21 8.86L21 8.86Q21.52 7.94 22.32 7.26L22.32 7.26L22.32 7.26Q23.11 6.58 23.91 6.58L23.91 6.58L23.91 6.58Q25.33 6.58 25.33 8.09L25.33 8.09L25.33 8.09Q25.33 8.47 25.28 8.93L25.28 8.93L25.28 8.93Q25.80 7.95 26.62 7.21L26.62 7.21L26.62 7.21Q27.44 6.47 28.25 6.47L28.25 6.47L28.25 6.47Q29.67 6.47 29.67 7.98ZM32.61 10.46L32.61 10.46L32.61 10.46Q32.61 11.47 32.93 12.05L32.93 12.05L32.93 12.05Q33.25 12.63 34.01 12.63L34.01 12.63L34.01 12.63Q34.76 12.63 35.19 12.12L35.19 12.12L35.19 12.12Q35.62 11.61 35.62 10.88L35.62 10.88L35.62 10.88Q36.09 10.88 36.44 11.12L36.44 11.12L36.44 11.12Q36.79 11.35 36.79 11.77L36.79 11.77L36.79 11.77Q36.79 12.64 35.87 13.22L35.87 13.22L35.87 13.22Q34.94 13.80 33.92 13.80L33.92 13.80L33.92 13.80Q32.33 13.80 31.61 12.94L31.61 12.94L31.61 12.94Q30.90 12.08 30.90 10.39L30.90 10.39L30.90 10.39Q30.90 8.69 31.86 7.54L31.86 7.54L31.86 7.54Q32.82 6.38 34.41 6.38L34.41 6.38L34.41 6.38Q35.50 6.38 36.17 6.88L36.17 6.88L36.17 6.88Q36.83 7.38 36.83 8.42L36.83 8.42L36.83 8.42Q36.83 9.46 35.89 9.99L35.89 9.99L35.89 9.99Q34.94 10.51 33.59 10.51L33.59 10.51L33.59 10.51Q33.11 10.51 32.61 10.46ZM32.62 9.35L32.62 9.35L32.62 9.35Q33.04 9.44 33.50 9.44L33.50 9.44L33.50 9.44Q34.51 9.44 35.20 9.06L35.20 9.06L35.20 9.06Q35.28 8.72 35.28 8.53L35.28 8.53L35.28 8.53Q35.28 8.04 34.93 7.78L34.93 7.78L34.93 7.78Q34.58 7.53 33.97 7.53L33.97 7.53L33.97 7.53Q33.36 7.53 32.87 7.92L32.87 7.92L32.87 7.92Q32.62 8.65 32.62 9.35ZM42.21 3.86L42.21 3.86L42.21 3.86Q42.66 3.70 43.18 3.70L43.18 3.70L43.18 3.70Q44.42 3.70 44.42 4.83L44.42 4.83L44.42 4.83Q44.42 5.45 44.28 6.85L44.28 6.85L44.28 6.85Q44.14 8.26 44.14 9.77L44.14 9.77L44.14 9.77Q44.14 11.28 44.24 12.28L44.24 12.28L44.24 12.28Q44.62 12.32 45.00 12.32L45.00 12.32L45.00 12.32Q46.84 12.32 48.24 11.70L48.24 11.70L48.24 11.70Q48.41 12.08 48.41 12.56L48.41 12.56L48.41 12.56Q48.41 13.03 48.08 13.38L48.08 13.38L48.08 13.38Q47.75 13.72 47.28 13.72L47.28 13.72L47.28 13.72Q46.28 13.72 42.92 13.55L42.92 13.55L42.92 13.55Q42.66 13.54 42.46 13.39L42.46 13.39L42.46 13.39Q42.27 13.24 42.27 13.02L42.27 13.02L42.27 13.02Q42.27 12.28 42.39 10.51L42.39 10.51L42.39 10.51Q42.50 8.75 42.50 7.26L42.50 7.26L42.50 7.26Q42.50 5.77 42.21 3.86ZM49.45 11.31L49.45 11.31L49.59 9.30L49.59 9.30Q49.59 7.94 49.20 6.72L49.20 6.72L49.20 6.72Q49.59 6.55 50.16 6.55L50.16 6.55L50.16 6.55Q51.28 6.55 51.28 7.80L51.28 7.80L51.28 7.80Q51.28 8.36 51.13 9.38L51.13 9.38L51.13 9.38Q50.97 10.40 50.97 10.79L50.97 10.79L50.97 10.79Q50.97 11.17 50.99 11.35L50.99 11.35L50.99 11.35Q51.00 11.52 51.06 11.76L51.06 11.76L51.06 11.76Q51.14 12.24 51.61 12.24L51.61 12.24L51.61 12.24Q52.08 12.24 52.62 11.49L52.62 11.49L52.62 11.49Q53.16 10.74 53.49 9.83L53.49 9.83L53.49 9.83Q53.82 8.92 53.82 8.39L53.82 8.39L53.82 8.39Q53.75 7.28 53.58 6.72L53.58 6.72L53.58 6.72Q54.03 6.55 54.50 6.55L54.50 6.55L54.50 6.55Q54.96 6.55 55.28 6.85L55.28 6.85L55.28 6.85Q55.59 7.14 55.59 7.63L55.59 7.63L55.59 7.63Q55.59 15.27 52.79 16.80L52.79 16.80L52.79 16.80Q52.16 17.14 51.37 17.14L51.37 17.14L51.37 17.14Q50.57 17.14 49.97 16.72L49.97 16.72L49.97 16.72Q49.38 16.30 49.38 15.54L49.38 15.54L49.38 15.54Q49.38 15.04 49.76 14.69L49.76 14.69L49.76 14.69Q50.13 14.35 50.65 14.35L50.65 14.35L50.65 14.35Q50.76 14.35 50.93 14.38L50.93 14.38L50.93 14.38Q50.89 14.56 50.89 14.70L50.89 14.70L50.89 14.70Q50.89 15.93 51.74 15.93L51.74 15.93L51.74 15.93Q52.26 15.93 52.68 15.37L52.68 15.37L52.68 15.37Q53.10 14.81 53.35 14.00L53.35 14.00L53.35 14.00Q53.84 12.35 53.84 11.00L53.84 11.00L53.84 11.00Q53.42 12.14 52.70 12.83L52.70 12.83L52.70 12.83Q51.98 13.52 51.14 13.52L51.14 13.52L51.14 13.52Q49.45 13.52 49.45 11.31ZM59.08 13.47L59.08 13.47Q58.65 13.64 58.16 13.64L58.16 13.64L58.16 13.64Q57.67 13.64 57.37 13.41L57.37 13.41L57.37 13.41Q57.06 13.17 57.06 12.76L57.06 12.76L57.06 12.76Q57.06 12.35 57.19 11.26L57.19 11.26L57.19 11.26Q57.32 10.16 57.32 9.14L57.32 9.14L57.32 9.14Q57.32 8.11 56.99 6.72L56.99 6.72L56.99 6.72Q57.44 6.55 57.88 6.55L57.88 6.55L57.88 6.55Q58.31 6.55 58.63 6.85L58.63 6.85L58.63 6.85Q58.94 7.14 58.94 7.63L58.94 7.63L58.94 7.63Q58.94 7.88 58.86 8.38L58.86 8.38L58.86 8.38Q58.77 8.88 58.76 9.13L58.76 9.13L58.76 9.13Q59.30 7.88 60.05 7.18L60.05 7.18L60.05 7.18Q60.80 6.47 61.54 6.47L61.54 6.47L61.54 6.47Q62.06 6.47 62.37 6.83L62.37 6.83L62.37 6.83Q62.68 7.20 62.68 7.75L62.68 7.75L62.68 7.75Q62.68 8.30 62.40 8.64L62.40 8.64L62.40 8.64Q62.12 8.99 61.71 8.99L61.71 8.99L61.71 8.99Q61.29 8.99 61.04 8.90L61.04 8.90L61.04 8.90Q61.08 8.74 61.08 8.60L61.08 8.60L61.08 8.60Q61.08 8.02 60.68 8.02L60.68 8.02L60.68 8.02Q60.06 8.02 59.52 9.26L59.52 9.26L59.52 9.26Q58.98 10.50 58.80 11.58L58.80 11.58L58.80 11.58Q58.87 12.63 59.08 13.47L59.08 13.47ZM63.48 6.68L63.48 6.68L63.48 6.68Q63.92 6.55 64.38 6.55L64.38 6.55L64.38 6.55Q64.83 6.55 65.16 6.83L65.16 6.83L65.16 6.83Q65.48 7.11 65.48 7.55L65.48 7.55L65.48 7.55Q65.48 7.99 65.33 9.08L65.33 9.08L65.33 9.08Q65.18 10.16 65.18 10.77L65.18 10.77L65.18 10.77Q65.18 12.33 65.48 13.47L65.48 13.47L65.48 13.47Q65.04 13.64 64.54 13.64L64.54 13.64L64.54 13.64Q64.04 13.64 63.74 13.41L63.74 13.41L63.74 13.41Q63.45 13.17 63.45 12.73L63.45 12.73L63.45 12.73Q63.45 12.29 63.62 11.28L63.62 11.28L63.62 11.28Q63.78 10.28 63.78 9.62L63.78 9.62L63.78 9.62Q63.78 7.87 63.48 6.68ZM63.66 3.51L63.66 3.51L63.66 3.51Q64.15 3.29 64.62 3.29L64.62 3.29L64.62 3.29Q65.10 3.29 65.33 3.54L65.33 3.54L65.33 3.54Q65.56 3.78 65.56 4.26L65.56 4.26L65.56 4.26Q65.56 4.73 65.25 5.10L65.25 5.10L65.25 5.10Q64.93 5.46 64.43 5.46L64.43 5.46L64.43 5.46Q63.39 5.46 63.39 4.38L63.39 4.38L63.39 4.38Q63.39 3.91 63.66 3.51ZM69.78 13.80L69.78 13.80L69.78 13.80Q68.28 13.80 67.48 13.01L67.48 13.01L67.48 13.01Q66.68 12.21 66.68 10.71L66.68 10.71L66.68 10.71Q66.68 8.89 67.70 7.64L67.70 7.64L67.70 7.64Q68.73 6.38 70.42 6.38L70.42 6.38L70.42 6.38Q71.39 6.38 71.99 6.77L71.99 6.77L71.99 6.77Q72.59 7.15 72.59 7.91L72.59 7.91L72.59 7.91Q72.59 8.40 72.20 8.79L72.20 8.79L72.20 8.79Q71.81 9.17 71.32 9.17L71.32 9.17L71.32 9.17Q71.20 9.17 71.04 9.14L71.04 9.14L71.04 9.14Q71.08 8.96 71.08 8.82L71.08 8.82L71.08 8.82Q71.08 8.32 70.81 7.97L70.81 7.97L70.81 7.97Q70.55 7.62 69.93 7.62L69.93 7.62L69.93 7.62Q69.31 7.62 68.78 8.12L68.78 8.12L68.78 8.12Q68.40 9.10 68.40 10.57L68.40 10.57L68.40 10.57Q68.40 12.57 69.92 12.57L69.92 12.57L69.92 12.57Q70.73 12.57 71.13 12.05L71.13 12.05L71.13 12.05Q71.53 11.52 71.53 10.86L71.53 10.86L71.53 10.86Q72.00 10.86 72.35 11.10L72.35 11.10L72.35 11.10Q72.70 11.34 72.70 11.76L72.70 11.76L72.70 11.76Q72.70 12.67 71.77 13.24L71.77 13.24L71.77 13.24Q70.84 13.80 69.78 13.80ZM75.18 11.09L75.18 11.09L75.18 11.09Q75.14 11.28 75.14 11.41L75.14 11.41L75.14 11.41Q75.14 11.98 75.48 12.29L75.48 12.29L75.48 12.29Q75.82 12.60 76.41 12.60L76.41 12.60L76.41 12.60Q76.99 12.60 77.37 12.38L77.37 12.38L77.37 12.38Q77.76 12.17 77.76 11.73L77.76 11.73L77.76 11.73Q77.76 11.30 77.34 11.04L77.34 11.04L77.34 11.04Q76.93 10.78 76.35 10.63L76.35 10.63L76.35 10.63Q75.77 10.47 75.18 10.28L75.18 10.28L75.18 10.28Q74.59 10.09 74.18 9.69L74.18 9.69L74.18 9.69Q73.77 9.28 73.77 8.67L73.77 8.67L73.77 8.67Q73.77 7.70 74.79 7.04L74.79 7.04L74.79 7.04Q75.81 6.38 76.93 6.38L76.93 6.38L76.93 6.38Q78.16 6.38 78.81 6.89L78.81 6.89L78.81 6.89Q79.18 7.18 79.18 7.67L79.18 7.67L79.18 7.67Q79.18 8.15 78.81 8.45L78.81 8.45L78.81 8.45Q78.44 8.75 77.91 8.75L77.91 8.75L77.91 8.75Q77.80 8.75 77.63 8.72L77.63 8.72L77.63 8.72Q77.67 8.54 77.67 8.40L77.67 8.40L77.67 8.40Q77.67 7.99 77.36 7.78L77.36 7.78L77.36 7.78Q77.06 7.57 76.53 7.57L76.53 7.57L76.53 7.57Q76.01 7.57 75.57 7.78L75.57 7.78L75.57 7.78Q75.40 8.01 75.40 8.36L75.40 8.36L75.40 8.36Q75.40 8.71 75.81 8.93L75.81 8.93L75.81 8.93Q76.22 9.14 76.80 9.30L76.80 9.30L76.80 9.30Q77.38 9.46 77.97 9.67L77.97 9.67L77.97 9.67Q78.55 9.87 78.96 10.30L78.96 10.30L78.96 10.30Q79.37 10.72 79.37 11.37L79.37 11.37L79.37 11.37Q79.37 12.42 78.32 13.11L78.32 13.11L78.32 13.11Q77.28 13.80 76.17 13.80L76.17 13.80L76.17 13.80Q75.07 13.80 74.35 13.41L74.35 13.41L74.35 13.41Q73.63 13.01 73.63 12.19L73.63 12.19L73.63 12.19Q73.63 11.69 74.00 11.38L74.00 11.38L74.00 11.38Q74.37 11.06 74.90 11.06L74.90 11.06L74.90 11.06Q75.01 11.06 75.18 11.09Z"></path></g><!----><g data-v-423bf9ae="" id="603fedb0-cf15-401a-b734-d323fd9cfc88" transform="matrix(1.159793723211094,0,0,1.159793723211094,113.64568733367254,-12.78968951709485)" stroke="none" fill="black"><path d="M28.8 88.8c-8.3 0-15.1-6.8-15.1-15.1s6.8-15.1 15.1-15.1S44 65.3 44 73.6s-6.8 15.2-15.2 15.2zm0-23.6c-4.7 0-8.5 3.8-8.5 8.5s3.8 8.5 8.5 8.5 8.5-3.8 8.5-8.5-3.8-8.5-8.5-8.5z"></path><path d="M44 73l-7-4V19.8l45.1-8.6 1.4 6.5L44 25.3z"></path><path d="M67.116 30.434l1.233 6.586-14.055 2.632-1.233-6.585zM83.454 43.463l1.233 6.586-30.372 5.688-1.233-6.585zM67.103 62.524l1.234 6.585-14.056 2.633-1.233-6.585z"></path></g><!----></svg>